<svg width="5000" height="5000" viewBox="0 0 5000 5000" fill="none" xmlns="http://www.w3.org/2000/svg">
<rect width="5000" height="5000" rx="400" fill="#121F33"/>
<path d="M4161.55 1801.91C3931.43 1450.84 3921.01 1010.01 3751.03 849.703C3581.04 689.399 3194.58 604.437 2954.04 614.857C2713.5 625.277 2588.41 739.895 2312.6 860.123C2036.78 980.351 1916.51 929.855 1831.51 940.275C1779.32 946.459 1728.59 961.646 1681.58 985.16C1681.58 985.16 1501.17 925.046 1190.07 1095.77C878.975 1266.49 980.804 1555.84 864.543 1661.65C699.372 1811.53 468.453 2031.95 414.733 2272.41C361.012 2512.86 599.147 3340.03 759.507 3690.3C919.867 4040.56 1220.54 4241.75 1345.62 4251.36C1529.23 4245.7 1711.25 4215.51 1886.84 4161.59C2012.27 4129.83 2144.03 4133.16 2267.69 4171.21C2392.78 4201.67 2698.26 4351.55 3034.22 4382.01C3370.17 4412.47 3575.43 4201.67 3655.61 4131.14C3848.3 3946.25 4022.82 3743.34 4176.78 3525.18C4437.37 3174.12 4588.11 2939.27 4592.92 2698.82C4597.73 2458.36 4392.47 2152.18 4161.55 1801.91ZM1781.8 1085.35C1807.46 1079.74 1882.03 1085.35 2107.33 1050.08C2332.64 1014.82 2613.27 820.047 2633.32 855.314C2653.36 890.581 2638.13 1105.39 2548.32 1180.73C2458.52 1256.07 2237.23 1270.5 2096.91 1245.66C1956.6 1220.81 1736.1 1095.77 1781.8 1085.35ZM4127.07 3340.03C3900.96 3600.53 3580.24 4086.25 3419.88 4161.59C3235.33 4241.07 3031.25 4263.68 2833.77 4226.52C2643.74 4186.44 2428.05 3955.6 2092.1 3990.87C1756.15 4026.14 1581.35 4182.43 1310.34 4095.87C1039.34 4009.3 793.985 3394.54 699.372 3029.04C604.76 2663.55 478.877 2362.98 603.958 2162.6C729.039 1962.22 939.912 1766.64 994.435 1686.49C1048.96 1606.34 1114.7 1321 1214.93 1245.66C1315.16 1170.31 1566.12 1070.12 1611.02 1105.39C1708.18 1227.39 1844.34 1312.29 1996.69 1345.85C2277.32 1421.19 2477.77 1430.81 2668.59 1250.46C2722.37 1205.77 2764.58 1148.78 2791.65 1084.32C2818.73 1019.86 2829.87 949.835 2824.14 880.161C2829.57 840.104 2845.02 802.062 2869.05 769.551C2889.09 755.123 3530.53 795.2 3675.66 980.351C3820.78 1165.5 3856.06 1681.68 4071.75 2002.29C4287.43 2322.9 4407.7 2488.01 4407.7 2693.2C4407.7 2898.39 4352.38 3079.54 4127.07 3340.03ZM1296.71 1537.41C1334.38 1484.25 1365.85 1426.98 1390.52 1366.69C1410.57 1323.4 1527.63 1316.99 1550.88 1303.36C1574.14 1289.74 1550.88 1253.67 1541.26 1230.43C1531.64 1207.18 1387.32 1250.46 1340.81 1276.91C1276.76 1343.2 1233.55 1426.8 1216.53 1517.37C1225.35 1529.39 1275.07 1553.44 1296.71 1537.41ZM815.633 2081.64C769.093 2152.04 732.152 2228.32 705.787 2308.47C697.795 2376.55 699.957 2445.43 712.201 2512.86C718.615 2556.14 792.381 2528.89 815.633 2519.27C838.885 2509.66 809.219 2428.7 809.219 2325.31C809.219 2221.91 912.651 2144.96 926.282 2121.72C939.912 2098.47 831.669 2066.41 810.822 2084.05L815.633 2081.64ZM3487.23 1256.07C3493.94 1220.29 3490.43 1183.34 3477.12 1149.45C3463.8 1115.56 3441.21 1086.11 3411.93 1064.45C3382.66 1042.79 3347.87 1029.81 3311.56 1026.98C3275.25 1024.16 3238.88 1031.61 3206.6 1048.48C3177.1 1061.19 3151.09 1080.8 3130.75 1105.66C3110.41 1130.52 3096.35 1159.9 3089.75 1191.32C3083.15 1222.75 3084.2 1255.31 3092.81 1286.24C3101.43 1317.18 3117.36 1345.59 3139.25 1369.09C3216.22 1436.42 3456.77 1439.62 3487.23 1256.07ZM3246.69 1133.44C3262.89 1124.74 3281.22 1120.82 3299.56 1122.13C3317.89 1123.44 3335.48 1129.94 3350.27 1140.86C3365.06 1151.78 3376.44 1166.67 3383.08 1183.8C3389.73 1200.94 3391.37 1219.61 3387.81 1237.64C3372.58 1329.82 3251.5 1328.21 3213.02 1292.95C3202.92 1281.16 3195.7 1267.19 3191.93 1252.13C3188.15 1237.08 3187.93 1221.36 3191.27 1206.2C3194.61 1191.05 3201.43 1176.88 3211.19 1164.81C3220.95 1152.74 3233.38 1143.1 3247.5 1136.65L3246.69 1133.44ZM2484.98 1777.87C2499.42 1617.56 2339.05 1596.72 2274.11 1617.56C2140.21 1650.42 2140.21 1833.97 2213.97 1870.84C2287.74 1907.71 2468.14 1943.78 2484.98 1777.87ZM2277.32 1800.31C2270.41 1792.51 2265.51 1783.15 2263.04 1773.04C2260.56 1762.92 2260.59 1752.36 2263.12 1742.26C2265.64 1732.16 2270.59 1722.82 2277.54 1715.06C2284.48 1707.3 2293.21 1701.35 2302.97 1697.71C2331.84 1690.5 2400.79 1697.71 2393.58 1769.05C2386.36 1840.38 2309.39 1818.74 2277.32 1802.71V1800.31ZM2110.54 2018.32C1906.88 1927.75 1619.84 1897.29 1505.98 1951.8C1332.41 2053.96 1190.15 2201.72 1094.66 2379.01C1049.57 2454.86 1022.5 2540.06 1015.55 2628.03C1008.6 2715.99 1021.95 2804.38 1054.57 2886.37C1117.91 3029.84 1225.35 3006.6 1328.79 3026.64C1406.98 3051.36 1473.43 3103.81 1515.61 3174.12C1549.28 3210.19 1712.85 3203.77 1756.15 3197.36C1838.86 3168.33 1912.62 3118.34 1970.23 3052.29C2027.15 2980.15 2098.51 2788.59 2178.69 2508.05C2258.87 2227.52 2314.2 2110.5 2110.54 2018.32ZM2150.63 2258.78C2102.73 2424.24 2045.72 2586.93 1979.85 2746.11C1910.09 2936.87 1910.09 2980.15 1806.66 3043.47C1703.23 3106.79 1626.25 3130.84 1598.99 3103.58C1538.87 3029.6 1459.12 2974.05 1368.88 2943.28C1248.61 2913.62 1158 2890.38 1145.17 2853.51C1103.32 2710.83 1113.84 2557.9 1174.84 2422.29C1268.65 2255.57 1462.69 2055.19 1562.91 2021.53C1627.06 1997.48 1903.68 2061.6 1999.89 2092.06C2096.11 2122.52 2164.26 2178.63 2150.63 2264.39V2258.78ZM3496.86 2449.54C3546.13 2424.21 3589.8 2389.21 3625.23 2346.62C3660.67 2304.04 3687.15 2254.74 3703.09 2201.69C3719.04 2148.64 3724.11 2092.92 3718.02 2037.87C3711.93 1982.81 3694.79 1929.55 3667.64 1881.26C3614.97 1775.15 3523.45 1693.39 3412.07 1652.95C3300.69 1612.5 3178.02 1616.48 3069.5 1664.05C2765.61 1834.77 2715.1 2144.96 2855.41 2355.76C2995.73 2566.56 3326.87 2528.09 3496.86 2455.15V2449.54ZM2895.5 2048.78C2912.34 2048.78 3002.14 2238.74 3029.41 2232.33C3056.67 2225.92 3082.32 2165.8 3072.7 2152.18C3023.49 2084.08 2981.05 2011.33 2946.02 1934.96C2955.64 1925.35 2989.32 1845.19 3006.15 1865.23C3022.99 1885.27 3112.79 2125.73 3132.84 2112.1C3152.88 2098.47 3186.56 2038.36 3172.93 2015.12C3159.3 1991.87 3049.45 1814.74 3066.29 1797.9C3083.13 1781.07 3159.3 1724.97 3172.93 1737.79C3186.56 1750.61 3229.86 1911.72 3253.11 1914.93C3264.71 1915.06 3275.97 1910.99 3284.81 1903.48C3293.65 1895.97 3299.48 1885.52 3301.22 1874.05C3301.22 1850 3261.13 1723.36 3284.38 1713.74C3346.06 1721.94 3404.81 1745.07 3455.53 1781.1C3506.25 1817.14 3547.41 1865 3575.43 1920.54C3662.03 2094.47 3629.15 2201.07 3569.02 2284.43C3514.74 2346.32 3444.7 2392.35 3366.34 2417.61C3287.98 2442.87 3204.24 2446.43 3124.02 2427.9C3066.28 2417.12 3013.19 2389.03 2971.81 2347.37C2930.42 2305.71 2902.69 2252.45 2892.3 2194.66C2885.88 2144.16 2878.67 2057.6 2895.5 2057.6V2048.78ZM1222.15 2611.45C1259.93 2695.07 1304.45 2775.48 1355.25 2851.91C1372.08 2859.12 1392.13 2851.91 1415.38 2831.87C1438.63 2811.83 1315.16 2591.41 1288.7 2564.96C1262.24 2538.51 1211.72 2587.4 1222.15 2611.45ZM1345.62 2407.86C1395.28 2538.99 1456.74 2665.35 1529.24 2785.38C1542.55 2781.62 1554.01 2773.08 1561.41 2761.39C1568.81 2749.7 1571.63 2735.7 1569.33 2722.06C1528.76 2598.55 1475 2479.77 1408.97 2367.79C1388.92 2354.96 1350.43 2384.62 1345.62 2407.86ZM1492.35 2241.15C1531.98 2350.51 1577.76 2457.55 1629.46 2561.75C1646.3 2575.38 1669.55 2548.13 1675.97 2501.64C1653.73 2392.18 1613.06 2287.3 1555.7 2191.45C1537.25 2178.63 1487.54 2225.12 1492.35 2241.15ZM1672.76 2147.37C1682.6 2207.37 1702.96 2265.16 1732.89 2318.09C1752.94 2341.34 1772.98 2310.88 1786.61 2281.22C1787.38 2227.65 1774.7 2174.74 1749.73 2127.33C1739.31 2117.71 1672.76 2128.13 1672.76 2147.37ZM2695.05 2799.01C2698.46 2773.29 2694.98 2747.12 2684.97 2723.19C2674.96 2699.25 2658.78 2678.4 2638.07 2662.75C2617.37 2647.11 2592.88 2637.23 2567.12 2634.13C2541.35 2631.03 2515.22 2634.82 2491.4 2645.11C2364.71 2705.23 2351.08 2839.08 2420.84 2899.2C2490.6 2959.31 2695.05 2952.1 2695.05 2799.01ZM2489.79 2830.26C2460.93 2806.22 2466.54 2750.11 2518.66 2726.87C2528.21 2723.2 2538.55 2722.06 2548.68 2723.57C2558.8 2725.08 2568.36 2729.17 2576.43 2735.47C2584.5 2741.76 2590.8 2750.03 2594.73 2759.48C2598.66 2768.93 2600.07 2779.23 2598.84 2789.39C2601.24 2852.71 2518.66 2855.11 2489.79 2830.26ZM3892.95 2413.47C3732.58 2488.82 3717.35 2653.93 3805.55 2734.08C3893.75 2814.23 4147.92 2800.61 4147.92 2609.04C4152.8 2576.61 4148.91 2543.46 4136.63 2513.05C4124.36 2482.63 4104.15 2456.06 4078.13 2436.09C4052.1 2416.13 4021.19 2403.5 3988.62 2399.52C3956.06 2395.54 3923.02 2400.36 3892.95 2413.47ZM3869.69 2666.75C3857.41 2653.23 3848.75 2636.81 3844.53 2619.04C3840.3 2601.27 3840.65 2582.71 3845.53 2565.11C3850.41 2547.51 3859.67 2531.43 3872.45 2518.36C3885.23 2505.3 3901.11 2495.69 3918.6 2490.42C3935.15 2483.15 3953.33 2480.41 3971.28 2482.49C3989.23 2484.56 4006.3 2491.38 4020.75 2502.23C4035.2 2513.08 4046.5 2527.58 4053.49 2544.24C4060.47 2560.9 4062.9 2579.11 4060.52 2597.02C4060.52 2704.43 3918.6 2708.43 3869.69 2666.75ZM1876.42 3461.06C1849.11 3469.31 1824.49 3484.68 1805.11 3505.6C1785.73 3526.53 1772.28 3552.24 1766.15 3580.09C1760.02 3607.94 1761.44 3636.92 1770.25 3664.04C1779.06 3691.16 1794.95 3715.45 1816.28 3734.38C1883.63 3791.29 2093.7 3841.79 2137 3661.44C2180.3 3481.1 1971.03 3416.98 1876.42 3461.06ZM2066.44 3644.61C2039.98 3755.22 1910.89 3724.76 1870 3689.5C1857.29 3677.63 1847.89 3662.67 1842.72 3646.07C1837.55 3629.48 1836.79 3611.82 1840.51 3594.84C1844.23 3577.86 1852.31 3562.14 1863.95 3549.23C1875.58 3536.31 1890.38 3526.65 1906.88 3521.18C1964.61 3493.93 2093.7 3532.4 2066.44 3643.81V3644.61ZM3541.76 3300.76C3404.65 3280.72 3231.46 3350.45 3080.72 3393.73C2929.98 3437.02 2866.64 3348.05 2796.88 3373.7C2686.34 3440.56 2605.26 3546.82 2569.97 3671.06C2562.76 3751.21 2693.45 3861.82 2756.79 3891.48C2835.38 3921.84 2919.72 3934.43 3003.75 3928.35C3128.03 3928.35 3184.15 3985.26 3264.33 3998.08C3344.51 4010.91 3387.01 3941.98 3461.58 3870.64C3542.62 3805.25 3619.72 3735.12 3692.49 3660.64C3720.78 3594.19 3732.08 3521.75 3725.37 3449.84C3716.13 3407.9 3692.94 3370.33 3659.6 3343.26C3626.25 3316.18 3584.71 3301.2 3541.76 3300.76ZM3645.19 3597.32C3632.36 3617.36 3501.67 3711.14 3441.53 3784.88C3381.4 3858.62 3334.89 3911.52 3288.39 3914.72C3241.88 3917.93 3151.28 3857.82 3074.31 3844.99C2997.33 3832.17 2870.65 3844.99 2800.09 3811.33C2772.78 3800.86 2748.47 3783.84 2729.32 3761.75C2710.16 3739.66 2696.74 3713.19 2690.24 3684.69C2697.94 3620.65 2721.96 3559.65 2760 3507.55C2760 3507.55 2767.22 3701.52 2787.26 3707.93C2807.31 3714.34 2840.18 3717.55 2840.18 3701.52C2840.18 3685.49 2813.72 3461.06 2840.18 3457.06C2866.64 3453.05 2897.11 3461.06 2900.32 3470.68C2903.52 3480.3 2893.9 3721.56 2920.36 3724.76C2946.82 3727.97 2974.08 3737.59 2974.08 3724.76C2974.08 3711.94 2974.08 3484.31 2974.08 3484.31C2974.08 3484.31 3014.17 3484.31 3020.59 3493.93C3027 3503.54 3020.59 3734.38 3047.85 3741.6C3075.11 3748.81 3100.77 3741.6 3100.77 3724.76C3091.14 3637.21 3088.46 3549.04 3092.75 3461.06C3106.38 3461.06 3172.93 3424.19 3172.93 3437.82C3172.93 3451.44 3172.93 3630.99 3189.77 3630.99C3206.6 3630.99 3256.31 3630.99 3256.31 3607.74C3256.31 3584.5 3239.48 3430.6 3256.31 3420.99C3273.15 3411.37 3350.13 3380.91 3353.33 3394.54C3356.54 3408.16 3346.92 3524.38 3360.55 3524.38C3374.18 3524.38 3413.47 3524.38 3413.47 3501.14C3413.47 3477.89 3413.47 3377.7 3427.1 3374.5C3440.73 3371.29 3607.5 3374.5 3627.55 3417.78C3649.67 3473.53 3655.24 3534.48 3643.58 3593.31L3645.19 3597.32ZM2843.39 2923.24C2853.01 2929.65 2939.6 3203.77 2939.6 3203.77C2967.26 3204.3 2994.68 3198.54 3019.78 3186.94C3043.84 3170.11 2933.19 2912.82 2919.56 2900C2905.93 2887.17 2824.14 2904.81 2845.79 2919.23L2843.39 2923.24ZM3116.8 3033.05C3113.13 2930.33 3089.44 2829.32 3047.05 2735.69C3023.79 2719.65 2974.88 2757.33 2966.86 2769.35C2984.45 2863.43 3008.84 2956.12 3039.83 3046.68C3046.24 3060.3 3102.37 3049.08 3119.21 3029.04L3116.8 3033.05ZM3164.11 2702.82C3160.93 2787.74 3167.65 2872.74 3184.15 2956.1C3193.77 2983.36 3244.29 2960.11 3257.12 2949.69C3256.33 2864.18 3246.39 2779 3227.45 2695.61C3221.04 2668.36 3176.14 2685.19 3166.51 2698.82L3164.11 2702.82ZM3601.09 3103.58C3594.68 3097.17 3554.58 3160.49 3557.79 3177.32C3634.16 3243.34 3714.49 3304.64 3798.33 3360.87C3852.05 3400.95 3856.86 3352.06 3856.86 3317.59C3856.86 3283.12 3614.72 3113.2 3603.49 3102.78L3601.09 3103.58ZM3681.27 2912.82C3661.22 2906.41 3620.33 2938.47 3624.34 2956.91C3712.27 3067.52 3810.83 3169.27 3918.6 3260.68C3935.44 3260.68 3952.28 3233.43 3969.12 3220.61C3985.95 3207.78 3702.12 2919.23 3680.47 2912.02L3681.27 2912.82ZM3848.85 2832.67C3821.58 2816.64 3788.71 2872.75 3788.71 2872.75C3788.71 2872.75 3985.15 3126.83 4001.99 3137.25C4018.83 3147.67 4055.71 3106.79 4062.12 3083.55C4068.54 3060.3 3874.5 2848.7 3848.04 2831.87L3848.85 2832.67Z" fill="white"/>
</svg>
